<svg viewBox="0 0 960 300" xmlns="http://www.w3.org/2000/svg" role="img" aria-label="Three project tracks: Basic, Clinical Application, Basic Science">
  <defs>
    <style>
      .card-title { font-family: 'Palatino Linotype', Palatino, Georgia, serif; font-size: 26px; font-weight: 700; fill: #ffffff; }
      .card-sub { font-family: 'Palatino Linotype', Palatino, Georgia, serif; font-size: 15px; fill: #ffffff; opacity: 0.92; }
      .card-count { font-family: 'Palatino Linotype', Palatino, Georgia, serif; font-size: 13px; fill: #ffffff; opacity: 0.85; letter-spacing: 0.5px; }
    </style>
  </defs>

  <rect x="0" y="0" width="300" height="300" rx="14" fill="#005496"/>
  <rect x="330" y="0" width="300" height="300" rx="14" fill="#F37021"/>
  <rect x="660" y="0" width="300" height="300" rx="14" fill="#00304f"/>

  <!-- Basic: flask icon -->
  <g transform="translate(120,60)" stroke="#ffffff" stroke-width="4" fill="none" stroke-linejoin="round" stroke-linecap="round">
    <path d="M22 6 h16 M26 6 v22 l-16 32 a6 6 0 0 0 5 9 h26 a6 6 0 0 0 5 -9 l-16 -32 V6"/>
    <path d="M18 50 h20"/>
  </g>
  <text x="150" y="150" text-anchor="middle" class="card-count">3 PROJECTS</text>
  <text x="150" y="185" text-anchor="middle" class="card-title">Basic</text>
  <text x="150" y="215" text-anchor="middle" class="card-sub">
    <tspan x="150" dy="0">General prompting &amp;</tspan>
    <tspan x="150" dy="20">fine-tuning skills</tspan>
  </text>

  <!-- Clinical Application: heart icon -->
  <g transform="translate(457,73)" stroke="#ffffff" stroke-width="3.5" fill="none" stroke-linejoin="round" stroke-linecap="round">
    <path d="M24 42.7 l-2.9-2.64 C10.8 30.72 4 24.56 4 17 C4 10.84 8.84 6 15 6 c3.48 0 6.82 1.62 9 4.18 C26.18 7.62 29.52 6 33 6 C39.16 6 44 10.84 44 17 c0 7.56-6.8 13.72-17.1 23.08 Z"/>
  </g>
  <text x="480" y="150" text-anchor="middle" class="card-count">7 PROJECTS</text>
  <text x="480" y="185" text-anchor="middle" class="card-title">Clinical</text>
  <text x="480" y="211" text-anchor="middle" class="card-title" font-size="22">Application</text>
  <text x="480" y="238" text-anchor="middle" class="card-sub">Real clinical workflow tools</text>

  <!-- Basic Science: atom icon -->
  <g transform="translate(810,97)" stroke="#ffffff" stroke-width="3.5" fill="none">
    <ellipse rx="22" ry="9"/>
    <ellipse rx="22" ry="9" transform="rotate(60)"/>
    <ellipse rx="22" ry="9" transform="rotate(120)"/>
    <circle r="4.5" fill="#ffffff" stroke="none"/>
  </g>
  <text x="810" y="150" text-anchor="middle" class="card-count">10 PROJECTS</text>
  <text x="810" y="185" text-anchor="middle" class="card-title" font-size="24">Basic Science</text>
  <text x="810" y="215" text-anchor="middle" class="card-sub">
    <tspan x="810" dy="0">Model-internals</tspan>
    <tspan x="810" dy="20">analysis</tspan>
  </text>
</svg>
